<svg width="160" height="160" viewBox="0 0 160 160" fill="none" xmlns="http://www.w3.org/2000/svg">
<g clip-path="url(#clip0_47_13)">
<path d="M160 0H0V160H160V0Z" fill="white"/>
<path d="M83.584 66.064C82.688 66.96 81.6 67.408 80.32 67.408C79.04 67.408 77.9308 66.96 76.992 66.064C76.0532 65.1252 75.584 64.016 75.584 62.736C75.584 61.4132 76.0532 60.304 76.992 59.408C77.9308 58.4692 79.04 58 80.32 58C81.6 58 82.688 58.4692 83.584 59.408C84.5228 60.304 84.992 61.4132 84.992 62.736C84.992 64.0588 84.5228 65.168 83.584 66.064ZM76.032 101.2V69.968H84.608L88.6 85.6L84.608 101.2H76.032Z" fill="#F606BA"/>
<path d="M76 71.6H82.5255L86.6 85.6L82.5255 101.2H76V71.6Z" fill="white"/>
<path d="M76 73.2H81.7244L85.2 85.6L81.2 101.2H76V73.2Z" fill="#F606BA"/>
</g>
<defs>
<clipPath id="clip0_47_13">
<rect width="160" height="160" fill="white"/>
</clipPath>
</defs>
</svg>
